<svg xmlns="http://www.w3.org/2000/svg" xmlns:xlink="http://www.w3.org/1999/xlink" width="34" height="34" viewBox="0 0 34 34">
  <defs>
    <clipPath id="clip-path">
      <rect width="488" height="306" fill="none"/>
    </clipPath>
    <clipPath id="clip-block-bg">
      <rect width="34" height="34"/>
    </clipPath>
  </defs>
  <g id="block-bg" clip-path="url(#clip-block-bg)">
    <g id="Group_76" data-name="Group 76" transform="translate(-297.175 -1057)">
      <g id="Repeat_Grid_1" data-name="Repeat Grid 1" transform="translate(297.175 1057)" clip-path="url(#clip-path)">
        <g transform="translate(-297 -1057)">
          <g id="Rectangle_12" data-name="Rectangle 12" transform="translate(297 1057)" fill="none" stroke="#f6f6f6" stroke-width="1">
            <rect width="35" height="35" stroke="none"/>
            <rect x="0.5" y="0.5" width="34" height="34" fill="none"/>
          </g>
        </g>
        <g transform="translate(-263 -1057)">
          <g id="Rectangle_12-2" data-name="Rectangle 12" transform="translate(297 1057)" fill="none" stroke="#f6f6f6" stroke-width="1">
            <rect width="35" height="35" stroke="none"/>
            <rect x="0.5" y="0.5" width="34" height="34" fill="none"/>
          </g>
        </g>
        <g transform="translate(-229 -1057)">
          <g id="Rectangle_12-3" data-name="Rectangle 12" transform="translate(297 1057)" fill="none" stroke="#f6f6f6" stroke-width="1">
            <rect width="35" height="35" stroke="none"/>
            <rect x="0.5" y="0.5" width="34" height="34" fill="none"/>
          </g>
        </g>
        <g transform="translate(-195 -1057)">
          <g id="Rectangle_12-4" data-name="Rectangle 12" transform="translate(297 1057)" fill="none" stroke="#f6f6f6" stroke-width="1">
            <rect width="35" height="35" stroke="none"/>
            <rect x="0.5" y="0.5" width="34" height="34" fill="none"/>
          </g>
        </g>
        <g transform="translate(-161 -1057)">
          <g id="Rectangle_12-5" data-name="Rectangle 12" transform="translate(297 1057)" fill="none" stroke="#f6f6f6" stroke-width="1">
            <rect width="35" height="35" stroke="none"/>
            <rect x="0.5" y="0.5" width="34" height="34" fill="none"/>
          </g>
        </g>
        <g transform="translate(-127 -1057)">
          <g id="Rectangle_12-6" data-name="Rectangle 12" transform="translate(297 1057)" fill="none" stroke="#f6f6f6" stroke-width="1">
            <rect width="35" height="35" stroke="none"/>
            <rect x="0.5" y="0.5" width="34" height="34" fill="none"/>
          </g>
        </g>
        <g transform="translate(-93 -1057)">
          <g id="Rectangle_12-7" data-name="Rectangle 12" transform="translate(297 1057)" fill="none" stroke="#f6f6f6" stroke-width="1">
            <rect width="35" height="35" stroke="none"/>
            <rect x="0.5" y="0.5" width="34" height="34" fill="none"/>
          </g>
        </g>
        <g transform="translate(-59 -1057)">
          <g id="Rectangle_12-8" data-name="Rectangle 12" transform="translate(297 1057)" fill="none" stroke="#f6f6f6" stroke-width="1">
            <rect width="35" height="35" stroke="none"/>
            <rect x="0.5" y="0.5" width="34" height="34" fill="none"/>
          </g>
        </g>
        <g transform="translate(-25 -1057)">
          <g id="Rectangle_12-9" data-name="Rectangle 12" transform="translate(297 1057)" fill="none" stroke="#f6f6f6" stroke-width="1">
            <rect width="35" height="35" stroke="none"/>
            <rect x="0.5" y="0.5" width="34" height="34" fill="none"/>
          </g>
        </g>
        <g transform="translate(9 -1057)">
          <g id="Rectangle_12-10" data-name="Rectangle 12" transform="translate(297 1057)" fill="none" stroke="#f6f6f6" stroke-width="1">
            <rect width="35" height="35" stroke="none"/>
            <rect x="0.5" y="0.5" width="34" height="34" fill="none"/>
          </g>
        </g>
        <g transform="translate(43 -1057)">
          <g id="Rectangle_12-11" data-name="Rectangle 12" transform="translate(297 1057)" fill="none" stroke="#f6f6f6" stroke-width="1">
            <rect width="35" height="35" stroke="none"/>
            <rect x="0.5" y="0.5" width="34" height="34" fill="none"/>
          </g>
        </g>
        <g transform="translate(77 -1057)">
          <g id="Rectangle_12-12" data-name="Rectangle 12" transform="translate(297 1057)" fill="none" stroke="#f6f6f6" stroke-width="1">
            <rect width="35" height="35" stroke="none"/>
            <rect x="0.5" y="0.5" width="34" height="34" fill="none"/>
          </g>
        </g>
        <g transform="translate(111 -1057)">
          <g id="Rectangle_12-13" data-name="Rectangle 12" transform="translate(297 1057)" fill="none" stroke="#f6f6f6" stroke-width="1">
            <rect width="35" height="35" stroke="none"/>
            <rect x="0.5" y="0.5" width="34" height="34" fill="none"/>
          </g>
        </g>
        <g transform="translate(145 -1057)">
          <g id="Rectangle_12-14" data-name="Rectangle 12" transform="translate(297 1057)" fill="none" stroke="#f6f6f6" stroke-width="1">
            <rect width="35" height="35" stroke="none"/>
            <rect x="0.5" y="0.5" width="34" height="34" fill="none"/>
          </g>
        </g>
        <g transform="translate(179 -1057)">
          <g id="Rectangle_12-15" data-name="Rectangle 12" transform="translate(297 1057)" fill="none" stroke="#f6f6f6" stroke-width="1">
            <rect width="35" height="35" stroke="none"/>
            <rect x="0.5" y="0.5" width="34" height="34" fill="none"/>
          </g>
        </g>
        <g transform="translate(-297 -1023)">
          <g id="Rectangle_12-16" data-name="Rectangle 12" transform="translate(297 1057)" fill="none" stroke="#f6f6f6" stroke-width="1">
            <rect width="35" height="35" stroke="none"/>
            <rect x="0.5" y="0.5" width="34" height="34" fill="none"/>
          </g>
        </g>
        <g transform="translate(-263 -1023)">
          <g id="Rectangle_12-17" data-name="Rectangle 12" transform="translate(297 1057)" fill="none" stroke="#f6f6f6" stroke-width="1">
            <rect width="35" height="35" stroke="none"/>
            <rect x="0.5" y="0.5" width="34" height="34" fill="none"/>
          </g>
        </g>
        <g transform="translate(-229 -1023)">
          <g id="Rectangle_12-18" data-name="Rectangle 12" transform="translate(297 1057)" fill="none" stroke="#f6f6f6" stroke-width="1">
            <rect width="35" height="35" stroke="none"/>
            <rect x="0.5" y="0.5" width="34" height="34" fill="none"/>
          </g>
        </g>
        <g transform="translate(-195 -1023)">
          <g id="Rectangle_12-19" data-name="Rectangle 12" transform="translate(297 1057)" fill="none" stroke="#f6f6f6" stroke-width="1">
            <rect width="35" height="35" stroke="none"/>
            <rect x="0.5" y="0.5" width="34" height="34" fill="none"/>
          </g>
        </g>
        <g transform="translate(-161 -1023)">
          <g id="Rectangle_12-20" data-name="Rectangle 12" transform="translate(297 1057)" fill="none" stroke="#f6f6f6" stroke-width="1">
            <rect width="35" height="35" stroke="none"/>
            <rect x="0.5" y="0.5" width="34" height="34" fill="none"/>
          </g>
        </g>
        <g transform="translate(-127 -1023)">
          <g id="Rectangle_12-21" data-name="Rectangle 12" transform="translate(297 1057)" fill="none" stroke="#f6f6f6" stroke-width="1">
            <rect width="35" height="35" stroke="none"/>
            <rect x="0.5" y="0.5" width="34" height="34" fill="none"/>
          </g>
        </g>
        <g transform="translate(-93 -1023)">
          <g id="Rectangle_12-22" data-name="Rectangle 12" transform="translate(297 1057)" fill="none" stroke="#f6f6f6" stroke-width="1">
            <rect width="35" height="35" stroke="none"/>
            <rect x="0.5" y="0.5" width="34" height="34" fill="none"/>
          </g>
        </g>
        <g transform="translate(-59 -1023)">
          <g id="Rectangle_12-23" data-name="Rectangle 12" transform="translate(297 1057)" fill="none" stroke="#f6f6f6" stroke-width="1">
            <rect width="35" height="35" stroke="none"/>
            <rect x="0.5" y="0.5" width="34" height="34" fill="none"/>
          </g>
        </g>
        <g transform="translate(-25 -1023)">
          <g id="Rectangle_12-24" data-name="Rectangle 12" transform="translate(297 1057)" fill="none" stroke="#f6f6f6" stroke-width="1">
            <rect width="35" height="35" stroke="none"/>
            <rect x="0.5" y="0.5" width="34" height="34" fill="none"/>
          </g>
        </g>
        <g transform="translate(9 -1023)">
          <g id="Rectangle_12-25" data-name="Rectangle 12" transform="translate(297 1057)" fill="none" stroke="#f6f6f6" stroke-width="1">
            <rect width="35" height="35" stroke="none"/>
            <rect x="0.5" y="0.5" width="34" height="34" fill="none"/>
          </g>
        </g>
        <g transform="translate(43 -1023)">
          <g id="Rectangle_12-26" data-name="Rectangle 12" transform="translate(297 1057)" fill="none" stroke="#f6f6f6" stroke-width="1">
            <rect width="35" height="35" stroke="none"/>
            <rect x="0.5" y="0.5" width="34" height="34" fill="none"/>
          </g>
        </g>
        <g transform="translate(77 -1023)">
          <g id="Rectangle_12-27" data-name="Rectangle 12" transform="translate(297 1057)" fill="none" stroke="#f6f6f6" stroke-width="1">
            <rect width="35" height="35" stroke="none"/>
            <rect x="0.5" y="0.5" width="34" height="34" fill="none"/>
          </g>
        </g>
        <g transform="translate(111 -1023)">
          <g id="Rectangle_12-28" data-name="Rectangle 12" transform="translate(297 1057)" fill="none" stroke="#f6f6f6" stroke-width="1">
            <rect width="35" height="35" stroke="none"/>
            <rect x="0.5" y="0.5" width="34" height="34" fill="none"/>
          </g>
        </g>
        <g transform="translate(145 -1023)">
          <g id="Rectangle_12-29" data-name="Rectangle 12" transform="translate(297 1057)" fill="none" stroke="#f6f6f6" stroke-width="1">
            <rect width="35" height="35" stroke="none"/>
            <rect x="0.5" y="0.5" width="34" height="34" fill="none"/>
          </g>
        </g>
        <g transform="translate(179 -1023)">
          <g id="Rectangle_12-30" data-name="Rectangle 12" transform="translate(297 1057)" fill="none" stroke="#f6f6f6" stroke-width="1">
            <rect width="35" height="35" stroke="none"/>
            <rect x="0.5" y="0.5" width="34" height="34" fill="none"/>
          </g>
        </g>
        <g transform="translate(-297 -989)">
          <g id="Rectangle_12-31" data-name="Rectangle 12" transform="translate(297 1057)" fill="none" stroke="#f6f6f6" stroke-width="1">
            <rect width="35" height="35" stroke="none"/>
            <rect x="0.5" y="0.5" width="34" height="34" fill="none"/>
          </g>
        </g>
        <g transform="translate(-263 -989)">
          <g id="Rectangle_12-32" data-name="Rectangle 12" transform="translate(297 1057)" fill="none" stroke="#f6f6f6" stroke-width="1">
            <rect width="35" height="35" stroke="none"/>
            <rect x="0.5" y="0.5" width="34" height="34" fill="none"/>
          </g>
        </g>
        <g transform="translate(-229 -989)">
          <g id="Rectangle_12-33" data-name="Rectangle 12" transform="translate(297 1057)" fill="none" stroke="#f6f6f6" stroke-width="1">
            <rect width="35" height="35" stroke="none"/>
            <rect x="0.5" y="0.5" width="34" height="34" fill="none"/>
          </g>
        </g>
        <g transform="translate(-195 -989)">
          <g id="Rectangle_12-34" data-name="Rectangle 12" transform="translate(297 1057)" fill="none" stroke="#f6f6f6" stroke-width="1">
            <rect width="35" height="35" stroke="none"/>
            <rect x="0.5" y="0.5" width="34" height="34" fill="none"/>
          </g>
        </g>
        <g transform="translate(-161 -989)">
          <g id="Rectangle_12-35" data-name="Rectangle 12" transform="translate(297 1057)" fill="none" stroke="#f6f6f6" stroke-width="1">
            <rect width="35" height="35" stroke="none"/>
            <rect x="0.5" y="0.5" width="34" height="34" fill="none"/>
          </g>
        </g>
        <g transform="translate(-127 -989)">
          <g id="Rectangle_12-36" data-name="Rectangle 12" transform="translate(297 1057)" fill="none" stroke="#f6f6f6" stroke-width="1">
            <rect width="35" height="35" stroke="none"/>
            <rect x="0.5" y="0.5" width="34" height="34" fill="none"/>
          </g>
        </g>
        <g transform="translate(-93 -989)">
          <g id="Rectangle_12-37" data-name="Rectangle 12" transform="translate(297 1057)" fill="none" stroke="#f6f6f6" stroke-width="1">
            <rect width="35" height="35" stroke="none"/>
            <rect x="0.5" y="0.5" width="34" height="34" fill="none"/>
          </g>
        </g>
        <g transform="translate(-59 -989)">
          <g id="Rectangle_12-38" data-name="Rectangle 12" transform="translate(297 1057)" fill="none" stroke="#f6f6f6" stroke-width="1">
            <rect width="35" height="35" stroke="none"/>
            <rect x="0.5" y="0.5" width="34" height="34" fill="none"/>
          </g>
        </g>
        <g transform="translate(-25 -989)">
          <g id="Rectangle_12-39" data-name="Rectangle 12" transform="translate(297 1057)" fill="none" stroke="#f6f6f6" stroke-width="1">
            <rect width="35" height="35" stroke="none"/>
            <rect x="0.5" y="0.5" width="34" height="34" fill="none"/>
          </g>
        </g>
        <g transform="translate(9 -989)">
          <g id="Rectangle_12-40" data-name="Rectangle 12" transform="translate(297 1057)" fill="none" stroke="#f6f6f6" stroke-width="1">
            <rect width="35" height="35" stroke="none"/>
            <rect x="0.5" y="0.5" width="34" height="34" fill="none"/>
          </g>
        </g>
        <g transform="translate(43 -989)">
          <g id="Rectangle_12-41" data-name="Rectangle 12" transform="translate(297 1057)" fill="none" stroke="#f6f6f6" stroke-width="1">
            <rect width="35" height="35" stroke="none"/>
            <rect x="0.5" y="0.5" width="34" height="34" fill="none"/>
          </g>
        </g>
        <g transform="translate(77 -989)">
          <g id="Rectangle_12-42" data-name="Rectangle 12" transform="translate(297 1057)" fill="none" stroke="#f6f6f6" stroke-width="1">
            <rect width="35" height="35" stroke="none"/>
            <rect x="0.5" y="0.5" width="34" height="34" fill="none"/>
          </g>
        </g>
        <g transform="translate(111 -989)">
          <g id="Rectangle_12-43" data-name="Rectangle 12" transform="translate(297 1057)" fill="none" stroke="#f6f6f6" stroke-width="1">
            <rect width="35" height="35" stroke="none"/>
            <rect x="0.5" y="0.5" width="34" height="34" fill="none"/>
          </g>
        </g>
        <g transform="translate(145 -989)">
          <g id="Rectangle_12-44" data-name="Rectangle 12" transform="translate(297 1057)" fill="none" stroke="#f6f6f6" stroke-width="1">
            <rect width="35" height="35" stroke="none"/>
            <rect x="0.5" y="0.5" width="34" height="34" fill="none"/>
          </g>
        </g>
        <g transform="translate(179 -989)">
          <g id="Rectangle_12-45" data-name="Rectangle 12" transform="translate(297 1057)" fill="none" stroke="#f6f6f6" stroke-width="1">
            <rect width="35" height="35" stroke="none"/>
            <rect x="0.5" y="0.5" width="34" height="34" fill="none"/>
          </g>
        </g>
        <g transform="translate(-297 -955)">
          <g id="Rectangle_12-46" data-name="Rectangle 12" transform="translate(297 1057)" fill="none" stroke="#f6f6f6" stroke-width="1">
            <rect width="35" height="35" stroke="none"/>
            <rect x="0.5" y="0.5" width="34" height="34" fill="none"/>
          </g>
        </g>
        <g transform="translate(-263 -955)">
          <g id="Rectangle_12-47" data-name="Rectangle 12" transform="translate(297 1057)" fill="none" stroke="#f6f6f6" stroke-width="1">
            <rect width="35" height="35" stroke="none"/>
            <rect x="0.5" y="0.5" width="34" height="34" fill="none"/>
          </g>
        </g>
        <g transform="translate(-229 -955)">
          <g id="Rectangle_12-48" data-name="Rectangle 12" transform="translate(297 1057)" fill="none" stroke="#f6f6f6" stroke-width="1">
            <rect width="35" height="35" stroke="none"/>
            <rect x="0.5" y="0.5" width="34" height="34" fill="none"/>
          </g>
        </g>
        <g transform="translate(-195 -955)">
          <g id="Rectangle_12-49" data-name="Rectangle 12" transform="translate(297 1057)" fill="none" stroke="#f6f6f6" stroke-width="1">
            <rect width="35" height="35" stroke="none"/>
            <rect x="0.5" y="0.5" width="34" height="34" fill="none"/>
          </g>
        </g>
        <g transform="translate(-161 -955)">
          <g id="Rectangle_12-50" data-name="Rectangle 12" transform="translate(297 1057)" fill="none" stroke="#f6f6f6" stroke-width="1">
            <rect width="35" height="35" stroke="none"/>
            <rect x="0.5" y="0.5" width="34" height="34" fill="none"/>
          </g>
        </g>
        <g transform="translate(-127 -955)">
          <g id="Rectangle_12-51" data-name="Rectangle 12" transform="translate(297 1057)" fill="none" stroke="#f6f6f6" stroke-width="1">
            <rect width="35" height="35" stroke="none"/>
            <rect x="0.5" y="0.5" width="34" height="34" fill="none"/>
          </g>
        </g>
        <g transform="translate(-93 -955)">
          <g id="Rectangle_12-52" data-name="Rectangle 12" transform="translate(297 1057)" fill="none" stroke="#f6f6f6" stroke-width="1">
            <rect width="35" height="35" stroke="none"/>
            <rect x="0.5" y="0.5" width="34" height="34" fill="none"/>
          </g>
        </g>
        <g transform="translate(-59 -955)">
          <g id="Rectangle_12-53" data-name="Rectangle 12" transform="translate(297 1057)" fill="none" stroke="#f6f6f6" stroke-width="1">
            <rect width="35" height="35" stroke="none"/>
            <rect x="0.5" y="0.5" width="34" height="34" fill="none"/>
          </g>
        </g>
        <g transform="translate(-25 -955)">
          <g id="Rectangle_12-54" data-name="Rectangle 12" transform="translate(297 1057)" fill="none" stroke="#f6f6f6" stroke-width="1">
            <rect width="35" height="35" stroke="none"/>
            <rect x="0.5" y="0.5" width="34" height="34" fill="none"/>
          </g>
        </g>
        <g transform="translate(9 -955)">
          <g id="Rectangle_12-55" data-name="Rectangle 12" transform="translate(297 1057)" fill="none" stroke="#f6f6f6" stroke-width="1">
            <rect width="35" height="35" stroke="none"/>
            <rect x="0.5" y="0.5" width="34" height="34" fill="none"/>
          </g>
        </g>
        <g transform="translate(43 -955)">
          <g id="Rectangle_12-56" data-name="Rectangle 12" transform="translate(297 1057)" fill="none" stroke="#f6f6f6" stroke-width="1">
            <rect width="35" height="35" stroke="none"/>
            <rect x="0.5" y="0.5" width="34" height="34" fill="none"/>
          </g>
        </g>
        <g transform="translate(77 -955)">
          <g id="Rectangle_12-57" data-name="Rectangle 12" transform="translate(297 1057)" fill="none" stroke="#f6f6f6" stroke-width="1">
            <rect width="35" height="35" stroke="none"/>
            <rect x="0.5" y="0.5" width="34" height="34" fill="none"/>
          </g>
        </g>
        <g transform="translate(111 -955)">
          <g id="Rectangle_12-58" data-name="Rectangle 12" transform="translate(297 1057)" fill="none" stroke="#f6f6f6" stroke-width="1">
            <rect width="35" height="35" stroke="none"/>
            <rect x="0.5" y="0.5" width="34" height="34" fill="none"/>
          </g>
        </g>
        <g transform="translate(145 -955)">
          <g id="Rectangle_12-59" data-name="Rectangle 12" transform="translate(297 1057)" fill="none" stroke="#f6f6f6" stroke-width="1">
            <rect width="35" height="35" stroke="none"/>
            <rect x="0.5" y="0.5" width="34" height="34" fill="none"/>
          </g>
        </g>
        <g transform="translate(179 -955)">
          <g id="Rectangle_12-60" data-name="Rectangle 12" transform="translate(297 1057)" fill="none" stroke="#f6f6f6" stroke-width="1">
            <rect width="35" height="35" stroke="none"/>
            <rect x="0.5" y="0.5" width="34" height="34" fill="none"/>
          </g>
        </g>
        <g transform="translate(-297 -921)">
          <g id="Rectangle_12-61" data-name="Rectangle 12" transform="translate(297 1057)" fill="none" stroke="#f6f6f6" stroke-width="1">
            <rect width="35" height="35" stroke="none"/>
            <rect x="0.5" y="0.5" width="34" height="34" fill="none"/>
          </g>
        </g>
        <g transform="translate(-263 -921)">
          <g id="Rectangle_12-62" data-name="Rectangle 12" transform="translate(297 1057)" fill="none" stroke="#f6f6f6" stroke-width="1">
            <rect width="35" height="35" stroke="none"/>
            <rect x="0.5" y="0.5" width="34" height="34" fill="none"/>
          </g>
        </g>
        <g transform="translate(-229 -921)">
          <g id="Rectangle_12-63" data-name="Rectangle 12" transform="translate(297 1057)" fill="none" stroke="#f6f6f6" stroke-width="1">
            <rect width="35" height="35" stroke="none"/>
            <rect x="0.5" y="0.5" width="34" height="34" fill="none"/>
          </g>
        </g>
        <g transform="translate(-195 -921)">
          <g id="Rectangle_12-64" data-name="Rectangle 12" transform="translate(297 1057)" fill="none" stroke="#f6f6f6" stroke-width="1">
            <rect width="35" height="35" stroke="none"/>
            <rect x="0.5" y="0.5" width="34" height="34" fill="none"/>
          </g>
        </g>
        <g transform="translate(-161 -921)">
          <g id="Rectangle_12-65" data-name="Rectangle 12" transform="translate(297 1057)" fill="none" stroke="#f6f6f6" stroke-width="1">
            <rect width="35" height="35" stroke="none"/>
            <rect x="0.5" y="0.5" width="34" height="34" fill="none"/>
          </g>
        </g>
        <g transform="translate(-127 -921)">
          <g id="Rectangle_12-66" data-name="Rectangle 12" transform="translate(297 1057)" fill="none" stroke="#f6f6f6" stroke-width="1">
            <rect width="35" height="35" stroke="none"/>
            <rect x="0.5" y="0.5" width="34" height="34" fill="none"/>
          </g>
        </g>
        <g transform="translate(-93 -921)">
          <g id="Rectangle_12-67" data-name="Rectangle 12" transform="translate(297 1057)" fill="none" stroke="#f6f6f6" stroke-width="1">
            <rect width="35" height="35" stroke="none"/>
            <rect x="0.5" y="0.5" width="34" height="34" fill="none"/>
          </g>
        </g>
        <g transform="translate(-59 -921)">
          <g id="Rectangle_12-68" data-name="Rectangle 12" transform="translate(297 1057)" fill="none" stroke="#f6f6f6" stroke-width="1">
            <rect width="35" height="35" stroke="none"/>
            <rect x="0.5" y="0.5" width="34" height="34" fill="none"/>
          </g>
        </g>
        <g transform="translate(-25 -921)">
          <g id="Rectangle_12-69" data-name="Rectangle 12" transform="translate(297 1057)" fill="none" stroke="#f6f6f6" stroke-width="1">
            <rect width="35" height="35" stroke="none"/>
            <rect x="0.5" y="0.5" width="34" height="34" fill="none"/>
          </g>
        </g>
        <g transform="translate(9 -921)">
          <g id="Rectangle_12-70" data-name="Rectangle 12" transform="translate(297 1057)" fill="none" stroke="#f6f6f6" stroke-width="1">
            <rect width="35" height="35" stroke="none"/>
            <rect x="0.5" y="0.5" width="34" height="34" fill="none"/>
          </g>
        </g>
        <g transform="translate(43 -921)">
          <g id="Rectangle_12-71" data-name="Rectangle 12" transform="translate(297 1057)" fill="none" stroke="#f6f6f6" stroke-width="1">
            <rect width="35" height="35" stroke="none"/>
            <rect x="0.5" y="0.5" width="34" height="34" fill="none"/>
          </g>
        </g>
        <g transform="translate(77 -921)">
          <g id="Rectangle_12-72" data-name="Rectangle 12" transform="translate(297 1057)" fill="none" stroke="#f6f6f6" stroke-width="1">
            <rect width="35" height="35" stroke="none"/>
            <rect x="0.5" y="0.5" width="34" height="34" fill="none"/>
          </g>
        </g>
        <g transform="translate(111 -921)">
          <g id="Rectangle_12-73" data-name="Rectangle 12" transform="translate(297 1057)" fill="none" stroke="#f6f6f6" stroke-width="1">
            <rect width="35" height="35" stroke="none"/>
            <rect x="0.5" y="0.5" width="34" height="34" fill="none"/>
          </g>
        </g>
        <g transform="translate(145 -921)">
          <g id="Rectangle_12-74" data-name="Rectangle 12" transform="translate(297 1057)" fill="none" stroke="#f6f6f6" stroke-width="1">
            <rect width="35" height="35" stroke="none"/>
            <rect x="0.5" y="0.5" width="34" height="34" fill="none"/>
          </g>
        </g>
        <g transform="translate(179 -921)">
          <g id="Rectangle_12-75" data-name="Rectangle 12" transform="translate(297 1057)" fill="none" stroke="#f6f6f6" stroke-width="1">
            <rect width="35" height="35" stroke="none"/>
            <rect x="0.5" y="0.5" width="34" height="34" fill="none"/>
          </g>
        </g>
        <g transform="translate(-297 -887)">
          <g id="Rectangle_12-76" data-name="Rectangle 12" transform="translate(297 1057)" fill="none" stroke="#f6f6f6" stroke-width="1">
            <rect width="35" height="35" stroke="none"/>
            <rect x="0.5" y="0.5" width="34" height="34" fill="none"/>
          </g>
        </g>
        <g transform="translate(-263 -887)">
          <g id="Rectangle_12-77" data-name="Rectangle 12" transform="translate(297 1057)" fill="none" stroke="#f6f6f6" stroke-width="1">
            <rect width="35" height="35" stroke="none"/>
            <rect x="0.5" y="0.5" width="34" height="34" fill="none"/>
          </g>
        </g>
        <g transform="translate(-229 -887)">
          <g id="Rectangle_12-78" data-name="Rectangle 12" transform="translate(297 1057)" fill="none" stroke="#f6f6f6" stroke-width="1">
            <rect width="35" height="35" stroke="none"/>
            <rect x="0.5" y="0.5" width="34" height="34" fill="none"/>
          </g>
        </g>
        <g transform="translate(-195 -887)">
          <g id="Rectangle_12-79" data-name="Rectangle 12" transform="translate(297 1057)" fill="none" stroke="#f6f6f6" stroke-width="1">
            <rect width="35" height="35" stroke="none"/>
            <rect x="0.5" y="0.5" width="34" height="34" fill="none"/>
          </g>
        </g>
        <g transform="translate(-161 -887)">
          <g id="Rectangle_12-80" data-name="Rectangle 12" transform="translate(297 1057)" fill="none" stroke="#f6f6f6" stroke-width="1">
            <rect width="35" height="35" stroke="none"/>
            <rect x="0.5" y="0.5" width="34" height="34" fill="none"/>
          </g>
        </g>
        <g transform="translate(-127 -887)">
          <g id="Rectangle_12-81" data-name="Rectangle 12" transform="translate(297 1057)" fill="none" stroke="#f6f6f6" stroke-width="1">
            <rect width="35" height="35" stroke="none"/>
            <rect x="0.5" y="0.5" width="34" height="34" fill="none"/>
          </g>
        </g>
        <g transform="translate(-93 -887)">
          <g id="Rectangle_12-82" data-name="Rectangle 12" transform="translate(297 1057)" fill="none" stroke="#f6f6f6" stroke-width="1">
            <rect width="35" height="35" stroke="none"/>
            <rect x="0.5" y="0.5" width="34" height="34" fill="none"/>
          </g>
        </g>
        <g transform="translate(-59 -887)">
          <g id="Rectangle_12-83" data-name="Rectangle 12" transform="translate(297 1057)" fill="none" stroke="#f6f6f6" stroke-width="1">
            <rect width="35" height="35" stroke="none"/>
            <rect x="0.5" y="0.5" width="34" height="34" fill="none"/>
          </g>
        </g>
        <g transform="translate(-25 -887)">
          <g id="Rectangle_12-84" data-name="Rectangle 12" transform="translate(297 1057)" fill="none" stroke="#f6f6f6" stroke-width="1">
            <rect width="35" height="35" stroke="none"/>
            <rect x="0.5" y="0.5" width="34" height="34" fill="none"/>
          </g>
        </g>
        <g transform="translate(9 -887)">
          <g id="Rectangle_12-85" data-name="Rectangle 12" transform="translate(297 1057)" fill="none" stroke="#f6f6f6" stroke-width="1">
            <rect width="35" height="35" stroke="none"/>
            <rect x="0.5" y="0.5" width="34" height="34" fill="none"/>
          </g>
        </g>
        <g transform="translate(43 -887)">
          <g id="Rectangle_12-86" data-name="Rectangle 12" transform="translate(297 1057)" fill="none" stroke="#f6f6f6" stroke-width="1">
            <rect width="35" height="35" stroke="none"/>
            <rect x="0.5" y="0.5" width="34" height="34" fill="none"/>
          </g>
        </g>
        <g transform="translate(77 -887)">
          <g id="Rectangle_12-87" data-name="Rectangle 12" transform="translate(297 1057)" fill="none" stroke="#f6f6f6" stroke-width="1">
            <rect width="35" height="35" stroke="none"/>
            <rect x="0.5" y="0.5" width="34" height="34" fill="none"/>
          </g>
        </g>
        <g transform="translate(111 -887)">
          <g id="Rectangle_12-88" data-name="Rectangle 12" transform="translate(297 1057)" fill="none" stroke="#f6f6f6" stroke-width="1">
            <rect width="35" height="35" stroke="none"/>
            <rect x="0.5" y="0.5" width="34" height="34" fill="none"/>
          </g>
        </g>
        <g transform="translate(145 -887)">
          <g id="Rectangle_12-89" data-name="Rectangle 12" transform="translate(297 1057)" fill="none" stroke="#f6f6f6" stroke-width="1">
            <rect width="35" height="35" stroke="none"/>
            <rect x="0.5" y="0.5" width="34" height="34" fill="none"/>
          </g>
        </g>
        <g transform="translate(179 -887)">
          <g id="Rectangle_12-90" data-name="Rectangle 12" transform="translate(297 1057)" fill="none" stroke="#f6f6f6" stroke-width="1">
            <rect width="35" height="35" stroke="none"/>
            <rect x="0.5" y="0.5" width="34" height="34" fill="none"/>
          </g>
        </g>
        <g transform="translate(-297 -853)">
          <g id="Rectangle_12-91" data-name="Rectangle 12" transform="translate(297 1057)" fill="none" stroke="#f6f6f6" stroke-width="1">
            <rect width="35" height="35" stroke="none"/>
            <rect x="0.5" y="0.5" width="34" height="34" fill="none"/>
          </g>
        </g>
        <g transform="translate(-263 -853)">
          <g id="Rectangle_12-92" data-name="Rectangle 12" transform="translate(297 1057)" fill="none" stroke="#f6f6f6" stroke-width="1">
            <rect width="35" height="35" stroke="none"/>
            <rect x="0.5" y="0.5" width="34" height="34" fill="none"/>
          </g>
        </g>
        <g transform="translate(-229 -853)">
          <g id="Rectangle_12-93" data-name="Rectangle 12" transform="translate(297 1057)" fill="none" stroke="#f6f6f6" stroke-width="1">
            <rect width="35" height="35" stroke="none"/>
            <rect x="0.5" y="0.5" width="34" height="34" fill="none"/>
          </g>
        </g>
        <g transform="translate(-195 -853)">
          <g id="Rectangle_12-94" data-name="Rectangle 12" transform="translate(297 1057)" fill="none" stroke="#f6f6f6" stroke-width="1">
            <rect width="35" height="35" stroke="none"/>
            <rect x="0.5" y="0.5" width="34" height="34" fill="none"/>
          </g>
        </g>
        <g transform="translate(-161 -853)">
          <g id="Rectangle_12-95" data-name="Rectangle 12" transform="translate(297 1057)" fill="none" stroke="#f6f6f6" stroke-width="1">
            <rect width="35" height="35" stroke="none"/>
            <rect x="0.5" y="0.5" width="34" height="34" fill="none"/>
          </g>
        </g>
        <g transform="translate(-127 -853)">
          <g id="Rectangle_12-96" data-name="Rectangle 12" transform="translate(297 1057)" fill="none" stroke="#f6f6f6" stroke-width="1">
            <rect width="35" height="35" stroke="none"/>
            <rect x="0.5" y="0.5" width="34" height="34" fill="none"/>
          </g>
        </g>
        <g transform="translate(-93 -853)">
          <g id="Rectangle_12-97" data-name="Rectangle 12" transform="translate(297 1057)" fill="none" stroke="#f6f6f6" stroke-width="1">
            <rect width="35" height="35" stroke="none"/>
            <rect x="0.5" y="0.5" width="34" height="34" fill="none"/>
          </g>
        </g>
        <g transform="translate(-59 -853)">
          <g id="Rectangle_12-98" data-name="Rectangle 12" transform="translate(297 1057)" fill="none" stroke="#f6f6f6" stroke-width="1">
            <rect width="35" height="35" stroke="none"/>
            <rect x="0.5" y="0.5" width="34" height="34" fill="none"/>
          </g>
        </g>
        <g transform="translate(-25 -853)">
          <g id="Rectangle_12-99" data-name="Rectangle 12" transform="translate(297 1057)" fill="none" stroke="#f6f6f6" stroke-width="1">
            <rect width="35" height="35" stroke="none"/>
            <rect x="0.5" y="0.5" width="34" height="34" fill="none"/>
          </g>
        </g>
        <g transform="translate(9 -853)">
          <g id="Rectangle_12-100" data-name="Rectangle 12" transform="translate(297 1057)" fill="none" stroke="#f6f6f6" stroke-width="1">
            <rect width="35" height="35" stroke="none"/>
            <rect x="0.5" y="0.5" width="34" height="34" fill="none"/>
          </g>
        </g>
        <g transform="translate(43 -853)">
          <g id="Rectangle_12-101" data-name="Rectangle 12" transform="translate(297 1057)" fill="none" stroke="#f6f6f6" stroke-width="1">
            <rect width="35" height="35" stroke="none"/>
            <rect x="0.5" y="0.5" width="34" height="34" fill="none"/>
          </g>
        </g>
        <g transform="translate(77 -853)">
          <g id="Rectangle_12-102" data-name="Rectangle 12" transform="translate(297 1057)" fill="none" stroke="#f6f6f6" stroke-width="1">
            <rect width="35" height="35" stroke="none"/>
            <rect x="0.5" y="0.5" width="34" height="34" fill="none"/>
          </g>
        </g>
        <g transform="translate(111 -853)">
          <g id="Rectangle_12-103" data-name="Rectangle 12" transform="translate(297 1057)" fill="none" stroke="#f6f6f6" stroke-width="1">
            <rect width="35" height="35" stroke="none"/>
            <rect x="0.5" y="0.5" width="34" height="34" fill="none"/>
          </g>
        </g>
        <g transform="translate(145 -853)">
          <g id="Rectangle_12-104" data-name="Rectangle 12" transform="translate(297 1057)" fill="none" stroke="#f6f6f6" stroke-width="1">
            <rect width="35" height="35" stroke="none"/>
            <rect x="0.5" y="0.5" width="34" height="34" fill="none"/>
          </g>
        </g>
        <g transform="translate(179 -853)">
          <g id="Rectangle_12-105" data-name="Rectangle 12" transform="translate(297 1057)" fill="none" stroke="#f6f6f6" stroke-width="1">
            <rect width="35" height="35" stroke="none"/>
            <rect x="0.5" y="0.5" width="34" height="34" fill="none"/>
          </g>
        </g>
        <g transform="translate(-297 -819)">
          <g id="Rectangle_12-106" data-name="Rectangle 12" transform="translate(297 1057)" fill="none" stroke="#f6f6f6" stroke-width="1">
            <rect width="35" height="35" stroke="none"/>
            <rect x="0.5" y="0.5" width="34" height="34" fill="none"/>
          </g>
        </g>
        <g transform="translate(-263 -819)">
          <g id="Rectangle_12-107" data-name="Rectangle 12" transform="translate(297 1057)" fill="none" stroke="#f6f6f6" stroke-width="1">
            <rect width="35" height="35" stroke="none"/>
            <rect x="0.5" y="0.5" width="34" height="34" fill="none"/>
          </g>
        </g>
        <g transform="translate(-229 -819)">
          <g id="Rectangle_12-108" data-name="Rectangle 12" transform="translate(297 1057)" fill="none" stroke="#f6f6f6" stroke-width="1">
            <rect width="35" height="35" stroke="none"/>
            <rect x="0.5" y="0.5" width="34" height="34" fill="none"/>
          </g>
        </g>
        <g transform="translate(-195 -819)">
          <g id="Rectangle_12-109" data-name="Rectangle 12" transform="translate(297 1057)" fill="none" stroke="#f6f6f6" stroke-width="1">
            <rect width="35" height="35" stroke="none"/>
            <rect x="0.5" y="0.5" width="34" height="34" fill="none"/>
          </g>
        </g>
        <g transform="translate(-161 -819)">
          <g id="Rectangle_12-110" data-name="Rectangle 12" transform="translate(297 1057)" fill="none" stroke="#f6f6f6" stroke-width="1">
            <rect width="35" height="35" stroke="none"/>
            <rect x="0.5" y="0.5" width="34" height="34" fill="none"/>
          </g>
        </g>
        <g transform="translate(-127 -819)">
          <g id="Rectangle_12-111" data-name="Rectangle 12" transform="translate(297 1057)" fill="none" stroke="#f6f6f6" stroke-width="1">
            <rect width="35" height="35" stroke="none"/>
            <rect x="0.5" y="0.5" width="34" height="34" fill="none"/>
          </g>
        </g>
        <g transform="translate(-93 -819)">
          <g id="Rectangle_12-112" data-name="Rectangle 12" transform="translate(297 1057)" fill="none" stroke="#f6f6f6" stroke-width="1">
            <rect width="35" height="35" stroke="none"/>
            <rect x="0.5" y="0.5" width="34" height="34" fill="none"/>
          </g>
        </g>
        <g transform="translate(-59 -819)">
          <g id="Rectangle_12-113" data-name="Rectangle 12" transform="translate(297 1057)" fill="none" stroke="#f6f6f6" stroke-width="1">
            <rect width="35" height="35" stroke="none"/>
            <rect x="0.5" y="0.5" width="34" height="34" fill="none"/>
          </g>
        </g>
        <g transform="translate(-25 -819)">
          <g id="Rectangle_12-114" data-name="Rectangle 12" transform="translate(297 1057)" fill="none" stroke="#f6f6f6" stroke-width="1">
            <rect width="35" height="35" stroke="none"/>
            <rect x="0.5" y="0.5" width="34" height="34" fill="none"/>
          </g>
        </g>
        <g transform="translate(9 -819)">
          <g id="Rectangle_12-115" data-name="Rectangle 12" transform="translate(297 1057)" fill="none" stroke="#f6f6f6" stroke-width="1">
            <rect width="35" height="35" stroke="none"/>
            <rect x="0.5" y="0.5" width="34" height="34" fill="none"/>
          </g>
        </g>
        <g transform="translate(43 -819)">
          <g id="Rectangle_12-116" data-name="Rectangle 12" transform="translate(297 1057)" fill="none" stroke="#f6f6f6" stroke-width="1">
            <rect width="35" height="35" stroke="none"/>
            <rect x="0.5" y="0.5" width="34" height="34" fill="none"/>
          </g>
        </g>
        <g transform="translate(77 -819)">
          <g id="Rectangle_12-117" data-name="Rectangle 12" transform="translate(297 1057)" fill="none" stroke="#f6f6f6" stroke-width="1">
            <rect width="35" height="35" stroke="none"/>
            <rect x="0.5" y="0.5" width="34" height="34" fill="none"/>
          </g>
        </g>
        <g transform="translate(111 -819)">
          <g id="Rectangle_12-118" data-name="Rectangle 12" transform="translate(297 1057)" fill="none" stroke="#f6f6f6" stroke-width="1">
            <rect width="35" height="35" stroke="none"/>
            <rect x="0.5" y="0.5" width="34" height="34" fill="none"/>
          </g>
        </g>
        <g transform="translate(145 -819)">
          <g id="Rectangle_12-119" data-name="Rectangle 12" transform="translate(297 1057)" fill="none" stroke="#f6f6f6" stroke-width="1">
            <rect width="35" height="35" stroke="none"/>
            <rect x="0.5" y="0.5" width="34" height="34" fill="none"/>
          </g>
        </g>
        <g transform="translate(179 -819)">
          <g id="Rectangle_12-120" data-name="Rectangle 12" transform="translate(297 1057)" fill="none" stroke="#f6f6f6" stroke-width="1">
            <rect width="35" height="35" stroke="none"/>
            <rect x="0.5" y="0.5" width="34" height="34" fill="none"/>
          </g>
        </g>
        <g transform="translate(-297 -785)">
          <g id="Rectangle_12-121" data-name="Rectangle 12" transform="translate(297 1057)" fill="none" stroke="#f6f6f6" stroke-width="1">
            <rect width="35" height="35" stroke="none"/>
            <rect x="0.5" y="0.5" width="34" height="34" fill="none"/>
          </g>
        </g>
        <g transform="translate(-263 -785)">
          <g id="Rectangle_12-122" data-name="Rectangle 12" transform="translate(297 1057)" fill="none" stroke="#f6f6f6" stroke-width="1">
            <rect width="35" height="35" stroke="none"/>
            <rect x="0.5" y="0.5" width="34" height="34" fill="none"/>
          </g>
        </g>
        <g transform="translate(-229 -785)">
          <g id="Rectangle_12-123" data-name="Rectangle 12" transform="translate(297 1057)" fill="none" stroke="#f6f6f6" stroke-width="1">
            <rect width="35" height="35" stroke="none"/>
            <rect x="0.5" y="0.5" width="34" height="34" fill="none"/>
          </g>
        </g>
        <g transform="translate(-195 -785)">
          <g id="Rectangle_12-124" data-name="Rectangle 12" transform="translate(297 1057)" fill="none" stroke="#f6f6f6" stroke-width="1">
            <rect width="35" height="35" stroke="none"/>
            <rect x="0.5" y="0.5" width="34" height="34" fill="none"/>
          </g>
        </g>
        <g transform="translate(-161 -785)">
          <g id="Rectangle_12-125" data-name="Rectangle 12" transform="translate(297 1057)" fill="none" stroke="#f6f6f6" stroke-width="1">
            <rect width="35" height="35" stroke="none"/>
            <rect x="0.5" y="0.5" width="34" height="34" fill="none"/>
          </g>
        </g>
        <g transform="translate(-127 -785)">
          <g id="Rectangle_12-126" data-name="Rectangle 12" transform="translate(297 1057)" fill="none" stroke="#f6f6f6" stroke-width="1">
            <rect width="35" height="35" stroke="none"/>
            <rect x="0.5" y="0.5" width="34" height="34" fill="none"/>
          </g>
        </g>
        <g transform="translate(-93 -785)">
          <g id="Rectangle_12-127" data-name="Rectangle 12" transform="translate(297 1057)" fill="none" stroke="#f6f6f6" stroke-width="1">
            <rect width="35" height="35" stroke="none"/>
            <rect x="0.5" y="0.5" width="34" height="34" fill="none"/>
          </g>
        </g>
        <g transform="translate(-59 -785)">
          <g id="Rectangle_12-128" data-name="Rectangle 12" transform="translate(297 1057)" fill="none" stroke="#f6f6f6" stroke-width="1">
            <rect width="35" height="35" stroke="none"/>
            <rect x="0.5" y="0.5" width="34" height="34" fill="none"/>
          </g>
        </g>
        <g transform="translate(-25 -785)">
          <g id="Rectangle_12-129" data-name="Rectangle 12" transform="translate(297 1057)" fill="none" stroke="#f6f6f6" stroke-width="1">
            <rect width="35" height="35" stroke="none"/>
            <rect x="0.5" y="0.5" width="34" height="34" fill="none"/>
          </g>
        </g>
        <g transform="translate(9 -785)">
          <g id="Rectangle_12-130" data-name="Rectangle 12" transform="translate(297 1057)" fill="none" stroke="#f6f6f6" stroke-width="1">
            <rect width="35" height="35" stroke="none"/>
            <rect x="0.5" y="0.5" width="34" height="34" fill="none"/>
          </g>
        </g>
        <g transform="translate(43 -785)">
          <g id="Rectangle_12-131" data-name="Rectangle 12" transform="translate(297 1057)" fill="none" stroke="#f6f6f6" stroke-width="1">
            <rect width="35" height="35" stroke="none"/>
            <rect x="0.5" y="0.5" width="34" height="34" fill="none"/>
          </g>
        </g>
        <g transform="translate(77 -785)">
          <g id="Rectangle_12-132" data-name="Rectangle 12" transform="translate(297 1057)" fill="none" stroke="#f6f6f6" stroke-width="1">
            <rect width="35" height="35" stroke="none"/>
            <rect x="0.5" y="0.5" width="34" height="34" fill="none"/>
          </g>
        </g>
        <g transform="translate(111 -785)">
          <g id="Rectangle_12-133" data-name="Rectangle 12" transform="translate(297 1057)" fill="none" stroke="#f6f6f6" stroke-width="1">
            <rect width="35" height="35" stroke="none"/>
            <rect x="0.5" y="0.5" width="34" height="34" fill="none"/>
          </g>
        </g>
        <g transform="translate(145 -785)">
          <g id="Rectangle_12-134" data-name="Rectangle 12" transform="translate(297 1057)" fill="none" stroke="#f6f6f6" stroke-width="1">
            <rect width="35" height="35" stroke="none"/>
            <rect x="0.5" y="0.5" width="34" height="34" fill="none"/>
          </g>
        </g>
        <g transform="translate(179 -785)">
          <g id="Rectangle_12-135" data-name="Rectangle 12" transform="translate(297 1057)" fill="none" stroke="#f6f6f6" stroke-width="1">
            <rect width="35" height="35" stroke="none"/>
            <rect x="0.5" y="0.5" width="34" height="34" fill="none"/>
          </g>
        </g>
      </g>
    </g>
  </g>
</svg>
