<?xml version="1.0" encoding="utf-8"?>
<!-- Generator: Adobe Illustrator 16.0.3, SVG Export Plug-In . SVG Version: 6.00 Build 0)  -->
<!DOCTYPE svg PUBLIC "-//W3C//DTD SVG 1.1//EN" "http://www.w3.org/Graphics/SVG/1.1/DTD/svg11.dtd">
<svg version="1.1" id="圖層_1" xmlns="http://www.w3.org/2000/svg" xmlns:xlink="http://www.w3.org/1999/xlink" x="0px" y="0px"
	 width="111px" height="109.355px" viewBox="0 0 111 109.355" enable-background="new 0 0 111 109.355" xml:space="preserve">
<g>
	<path fill="#E2A7AF" d="M67.081,44.93c-0.708-0.053-1.398-0.082-2.066-0.072c0.608,1.807,0.636,3.949-0.033,6.277
		c-1.603,5.566-8.196,9.463-12.009,11.301c1.044,0.629,2.217,1.061,3.503,1.209c2.462,0.275,4.844-0.494,6.655-2
		c2.856-3.172,4.612-7.357,4.612-11.953C67.742,48.039,67.5,46.449,67.081,44.93z"/>
	<path fill="#E2A7AF" d="M50.794,67.553c1.963-0.107,3.845-0.523,5.593-1.215c-0.074-0.006-0.148-0.004-0.222-0.012
		c-1.909-0.219-3.64-0.916-5.126-1.934C51.055,65.426,50.937,66.49,50.794,67.553z"/>
	<path fill="#EFCE89" d="M49.832,31.777c-9.874,0-17.912,8.037-17.912,17.914c0,9.873,8.038,17.91,17.912,17.91
		c0.325,0,0.642-0.029,0.962-0.049c0.143-1.063,0.261-2.127,0.245-3.16c-0.397-0.271-0.787-0.555-1.146-0.871
		c-1.646-0.645-10.072-4.184-13.429-10.01c-1.544,0.004-3.029-0.314-4.28-1.566c1.251,1.252,2.736,1.57,4.28,1.566
		c-0.435-0.756-0.796-1.547-1.035-2.377c-1.556-5.404,0.442-9.943,5.474-11.119c3.888-0.906,7.429,1.791,9.301,5.646
		c1.872-3.855,5.413-6.553,9.301-5.646c2.863,0.67,4.708,2.451,5.509,4.842c0.668-0.01,1.358,0.02,2.066,0.072
		C64.988,37.361,58.057,31.777,49.832,31.777z"/>
	<path fill="#77BBBB" d="M53.703,100.148c-7.565-0.301-14.646-2.455-20.829-6.016c-5.79-2.734-10.789-6.859-14.572-11.939
		c1.229,2.273,0.352,4.416-1.559,5.887c1.825,0.896,3.806,1.438,5.835,1.557c0.545,4.592,3.157,8.883,7.47,11.375
		c4.594,2.654,10.004,2.619,14.417,0.398c2.766,3.707,7.177,6.119,12.159,6.119c1.063,0,2.091-0.137,3.093-0.346
		C57.374,105.273,55.29,102.855,53.703,100.148z"/>
	<path fill="#EECD8B" d="M55.501,100.209c-0.604,0-1.201-0.037-1.799-0.061c1.587,2.707,3.671,5.125,6.015,7.035
		c3.996-0.832,7.427-3.215,9.594-6.518c4.249,1.826,9.273,1.713,13.589-0.777c4.592-2.654,7.271-7.355,7.554-12.291
		c2.245-0.266,4.415-1.033,6.341-2.244c-2.178-0.342-4.116-1.084-5.89-2.09C82.552,93.59,69.787,100.209,55.501,100.209z"/>
	<path fill="#77BBBB" d="M108.352,53.555c0-5.311-2.735-9.977-6.865-12.689c1.828-4.248,1.713-9.273-0.775-13.586
		c-2.657-4.596-7.356-7.271-12.291-7.557c-0.545-4.596-3.157-8.887-7.468-11.377C76.357,5.693,70.95,5.727,66.535,7.947
		C66.227,7.533,65.89,7.141,65.54,6.76c-1.255,0.971-2.262,1.941-3.047,2.924c21.644,3.354,38.295,22.002,38.528,44.518
		c2.122,1.051,4.636,1.664,7.122,1.73C108.266,55.154,108.352,54.367,108.352,53.555z"/>
	<path fill="#E2A7AF" d="M108.143,55.932c-2.485-0.066-5-0.68-7.122-1.73c0.001,0.16,0.011,0.318,0.011,0.479
		c0,10.818-3.8,20.762-10.127,28.584c1.773,1.006,3.712,1.748,5.89,2.09c2.015-1.266,3.765-3.018,5.039-5.225
		c2.652-4.596,2.618-10.004,0.397-14.42C105.334,63.393,107.509,59.922,108.143,55.932z"/>
	<path fill="#E2A7AF" d="M18.302,82.193c-0.288-0.389-0.557-0.791-0.831-1.189c-0.135-0.154-0.268-0.311-0.424-0.467
		c0.156,0.156,0.289,0.313,0.424,0.467c-3.344-4.861-5.617-10.518-6.443-16.637c-0.678-3.125-1.058-6.363-1.058-9.688
		c0-13.926,6.291-26.402,16.17-34.762c-1.718-0.201-3.592-0.078-5.379,0.01c-0.11,0.605-0.183,1.215-0.217,1.83
		c-4.592,0.543-8.887,3.152-11.375,7.469C6.512,33.82,6.544,39.23,8.768,43.646c-3.707,2.766-6.119,7.172-6.119,12.152
		c0,5.311,2.732,9.979,6.863,12.691c-1.828,4.248-1.712,9.273,0.78,13.586c1.562,2.707,3.842,4.725,6.452,6.004
		C18.653,86.609,19.53,84.467,18.302,82.193z"/>
	<path fill="#EFCE89" d="M26.14,19.918c7.935-6.713,18.182-10.771,29.362-10.771c2.376,0,4.712,0.184,6.992,0.537
		c0.785-0.982,1.792-1.953,3.047-2.924c-2.77-3.025-6.737-4.934-11.162-4.934c-5.312,0-9.979,2.734-12.689,6.863
		c-4.254-1.826-9.275-1.713-13.586,0.777c-4.025,2.326-6.58,6.217-7.341,10.461C22.547,19.84,24.421,19.717,26.14,19.918z"/>
	<path fill="#EFCE89" d="M49.314,23.203c-5.259,0-10.244,1.162-14.752,3.201c3.221,7.426-5.931,10.783-9.106,17.133
		c2.579,0,3.397,0.881,3.584,2.189c3.658-11.834,14.696-20.455,27.714-20.455c2.271,0,4.469,0.289,6.594,0.785
		C59.031,24.219,54.289,23.203,49.314,23.203z"/>
	<path fill="#77BBBB" d="M27.861,56.496c-7.023-3.148-11.499,6.719-12.346,13.455c3.538,9.227,10.176,16.92,18.643,21.811
		c4.617,2.154,9.738,3.393,15.157,3.393c0.726,0,1.437-0.064,2.151-0.107c-1.174-3.951-1.166-8.172,0.621-12.17
		C39.028,80.75,28.881,69.893,27.861,56.496z"/>
	<path fill="#E2A7AF" d="M85.277,59.424c-0.926,5.148-3.221,9.826-6.482,13.652c0.883,0.73,1.743,1.508,2.595,2.303
		C83.829,70.578,85.238,65.166,85.277,59.424z"/>
	<path fill="#EECD8B" d="M78.794,73.076c-5.317,6.238-13.217,10.207-22.04,10.207c-1.593,0-3.145-0.158-4.668-0.406
		c-1.787,3.998-1.795,8.219-0.621,12.17c13.087-0.781,24.292-8.578,29.923-19.668C80.537,74.584,79.678,73.807,78.794,73.076z"/>
	<path fill="#E2A7AF" d="M25.456,43.537c3.175-6.35,12.327-9.707,9.106-17.133c-12.493,5.646-21.224,18.201-21.224,32.777
		c0,1.578,0.136,3.115,0.333,4.639c0.46,2.107,1.084,4.152,1.843,6.131c0.848-6.736,5.323-16.604,12.346-13.455
		c-0.056-0.734-0.112-1.467-0.112-2.213c0-2.979,0.454-5.852,1.291-8.557C28.853,44.418,28.035,43.537,25.456,43.537z"/>
	<path fill="#EECD8B" d="M53.805,77.029c0.087,0.047,0.153,0.098,0.243,0.145C53.958,77.127,53.892,77.076,53.805,77.029
		c-0.521,0.998-0.979,2.051-1.326,3.182c1.395,0.23,2.817,0.371,4.275,0.371c8.308,0,15.713-3.877,20.539-9.906
		C68.616,65.115,58.25,68.523,53.805,77.029z"/>
	<path fill="#EFCE89" d="M79.12,40.494c-4.64-7.5-12.915-12.523-22.365-12.523c-2.666,0-5.238,0.406-7.664,1.145
		c0.25-0.006,0.493-0.035,0.741-0.035c9.806,0,18.019,6.889,20.092,16.078C73.555,45.395,77.127,45.061,79.12,40.494z"/>
	<path fill="#77BBBB" d="M50.472,70.262c-0.215,0.006-0.424,0.035-0.641,0.035c-8.78,0-16.275-5.523-19.236-13.27
		c1.227,11.799,10.297,21.279,21.884,23.184c0.347-1.131,0.805-2.184,1.326-3.182C50.694,75.355,50.273,72.912,50.472,70.262z"/>
	<path fill="#E2A7AF" d="M79.12,40.494c-1.992,4.566-5.564,4.9-9.196,4.664c0.33,1.459,0.519,2.973,0.519,4.533
		c0,3.309-0.805,6.422-2.194,9.195l0.033,0.014c-0.695,1.867-1.843,3.443-3.267,4.678c-3.636,3.971-8.789,6.504-14.542,6.684
		c-0.199,2.65,0.222,5.094,3.333,6.768c4.446-8.506,14.812-11.914,23.488-6.354c3.602-4.5,5.77-10.195,5.77-16.393
		C83.063,49.225,81.603,44.51,79.12,40.494z"/>
	<path fill="#E2A7AF" d="M29.287,20.861c-7.002,5.451-12.284,13.014-14.856,21.736c3.712-7.775,9.943-14.115,17.62-17.979
		C31.491,22.752,30.52,21.572,29.287,20.861z"/>
	<path fill="#EFCE89" d="M62.148,22.703c-1.879-3.961-2.52-7.344-1.189-10.5c-1.789-0.229-3.608-0.359-5.458-0.359
		c-9.878,0-18.969,3.377-26.215,9.018c1.233,0.711,2.204,1.891,2.764,3.758c5.198-2.619,11.052-4.115,17.264-4.115
		C53.811,20.504,58.129,21.285,62.148,22.703z"/>
	<path fill="#E2A7AF" d="M83.911,41.936c2.602,5.195,4.076,11.051,4.076,17.246c0,6.555-1.672,12.713-4.564,18.121
		c1.668,1.586,3.364,3.152,5.207,4.494c6.061-7.391,9.705-16.836,9.705-27.117c0-0.779-0.026-1.553-0.069-2.324
		c-0.157-0.139-0.343-0.264-0.489-0.41C94.631,45.654,89.996,42.346,83.911,41.936z"/>
	<path fill="#77BBBB" d="M60.959,12.203c-1.33,3.156-0.69,6.539,1.189,10.5c9.498,3.354,17.298,10.318,21.762,19.232
		c6.085,0.41,10.72,3.719,13.865,10.01c0.146,0.146,0.332,0.271,0.489,0.41C97.152,31.643,81.253,14.799,60.959,12.203z"/>
	<path fill="#EECD8B" d="M83.423,77.303c-5.737,10.725-16.364,18.459-28.904,20.158c0.329,0.006,0.649,0.051,0.982,0.051
		c13.335,0,25.266-6.129,33.128-15.715C86.787,80.455,85.091,78.889,83.423,77.303z"/>
</g>
</svg>
