<?xml version="1.0" encoding="utf-8"?>
<!-- Generator: Adobe Illustrator 16.0.3, SVG Export Plug-In . SVG Version: 6.00 Build 0)  -->
<!DOCTYPE svg PUBLIC "-//W3C//DTD SVG 1.1//EN" "http://www.w3.org/Graphics/SVG/1.1/DTD/svg11.dtd">
<svg version="1.1" id="圖層_1" xmlns="http://www.w3.org/2000/svg" xmlns:xlink="http://www.w3.org/1999/xlink" x="0px" y="0px"
	 width="430.14px" height="92.33px" viewBox="0 0 430.14 92.33" enable-background="new 0 0 430.14 92.33" xml:space="preserve">
<g>
	<path fill="#1C1D42" d="M169.319,7.222c-2.561-0.635-5.554,1.259-7.592,3.964c-0.588-2.705-2.57-4.599-5.471-3.964
		c-3.753,0.822-6.017,4.014-5.938,7.807c0.109,5.587,8.022,8.788,8.022,8.788s9.631-3.201,12.737-8.788
		C173.181,11.235,172.629,8.044,169.319,7.222z"/>
	<g>
		<path fill="#1C1D42" d="M103.33,4.74L53.378,74.05L45.442,4.74h-21.39l-0.634,2.346c3.43,0.297,5.779,0.7,7.047,1.209
			s2.6,1.48,4.001,2.921L15.74,75.385c-1.48,5.074-2.901,8.375-4.252,9.898c-1.86,2.114-4.887,3.172-9.076,3.172H0.697L0,90.807
			h28.371l0.697-2.352c-4.401-0.291-7.169-0.853-8.313-1.679c-1.144-0.826-1.715-2.022-1.715-3.588c0-1.566,0.657-4.612,1.966-9.139
			L36.37,20.797l8.062,70.01h2.537l50.207-70.01l-1.454,5.104l-46.52,64.905h4.193l39.574-55.251L82.955,70.687
			c-1.863,6.472-3.311,10.651-4.348,12.534c-1.038,1.884-2.21,3.166-3.522,3.84c-1.691,0.932-4.146,1.395-7.361,1.395h-1.715
			l-0.634,2.352h36.241l0.571-2.352h-1.523c-3.469,0-6.006-0.611-7.615-1.838c-1.144-0.846-1.715-2.094-1.715-3.746
			c0-1.817,0.466-4.314,1.394-7.486l15.932-54.588c1.354-4.698,2.613-7.869,3.78-9.521c1.163-1.648,2.441-2.749,3.839-3.298
			c0.803-0.297,3.489-0.595,8.062-0.892V4.74H103.33z"/>
		<path fill="#1C1D42" d="M161.925,33.368L149.36,77.859c-0.849,3.006-1.269,4.804-1.269,5.395c0,0.678,0.198,1.227,0.601,1.649
			c0.403,0.423,0.879,0.634,1.427,0.634c0.635,0,1.395-0.337,2.287-1.014c2.412-1.903,4.843-4.609,7.298-8.125l2.22,1.461
			c-2.878,4.4-6.261,8.101-10.153,11.107c-2.881,2.24-5.63,3.363-8.253,3.363c-1.734,0-3.152-0.519-4.252-1.553
			c-1.1-1.037-1.649-2.339-1.649-3.905s0.529-4.17,1.586-7.808l8.25-28.437c1.354-4.651,2.032-7.572,2.032-8.755
			c0-0.932-0.33-1.691-0.984-2.287c-0.654-0.591-1.553-0.889-2.696-0.889c-0.932,0-2.858,0.235-5.775,0.697V36.92L161.925,33.368z"
			/>
		<path fill="#1C1D42" d="M221.412,17.625l-4.953,17.264h9.968l-1.084,3.997h-9.898l-10.916,37.45
			c-1.186,4.021-1.777,6.624-1.777,7.807c0,0.721,0.165,1.27,0.509,1.652c0.337,0.377,0.74,0.568,1.202,0.568
			c1.058,0,2.455-0.74,4.189-2.221c1.018-0.846,3.277-3.449,6.793-7.807l2.095,1.586c-3.892,5.673-7.576,9.67-11.045,11.996
			c-2.369,1.605-4.761,2.412-7.173,2.412c-1.863,0-3.383-0.581-4.569-1.744s-1.777-2.656-1.777-4.474
			c0-2.286,0.677-5.778,2.032-10.474l10.599-36.753h-9.582l0.634-2.471c4.652-1.272,8.524-3.165,11.613-5.683
			c3.089-2.518,6.539-6.886,10.345-13.107H221.412z"/>
		<path fill="#1C1D42" d="M277.023,17.625l-4.949,17.264h9.965l-1.081,3.997h-9.902l-10.916,37.45
			c-1.186,4.021-1.777,6.624-1.777,7.807c0,0.721,0.168,1.27,0.509,1.652c0.337,0.377,0.74,0.568,1.206,0.568
			c1.058,0,2.452-0.74,4.189-2.221c1.015-0.846,3.278-3.449,6.79-7.807l2.095,1.586c-3.892,5.673-7.572,9.67-11.042,11.996
			c-2.372,1.605-4.761,2.412-7.173,2.412c-1.863,0-3.387-0.581-4.569-1.744c-1.186-1.163-1.777-2.656-1.777-4.474
			c0-2.286,0.674-5.778,2.028-10.474l10.603-36.753h-9.585l0.634-2.471c4.655-1.272,8.524-3.165,11.613-5.683
			c3.089-2.518,6.539-6.886,10.348-13.107H277.023z"/>
		<path fill="#1C1D42" d="M346.029,33.368l-3.873,19.483h-2.349c-0.212-5.67-1.417-9.796-3.618-12.376
			c-2.2-2.581-4.929-3.872-8.187-3.872c-2.626,0-4.708,0.72-6.254,2.157c-1.543,1.44-2.316,3.175-2.316,5.207
			c0,1.394,0.307,2.729,0.922,3.997c0.611,1.27,1.956,3.047,4.031,5.333c5.498,6.007,9.053,10.532,10.662,13.579
			c1.609,3.046,2.412,5.927,2.412,8.633c0,4.404-1.831,8.307-5.491,11.713c-3.661,3.402-8.283,5.107-13.867,5.107
			c-3.046,0-6.558-0.721-10.536-2.157c-1.397-0.509-2.475-0.764-3.238-0.764c-1.903,0-3.344,0.975-4.315,2.921h-2.349l3.872-20.563
			h2.349c0.251,6.43,1.586,10.979,3.998,13.646c2.412,2.666,5.712,3.997,9.902,3.997c3.214,0,5.765-0.898,7.648-2.695
			c1.88-1.798,2.825-4.012,2.825-6.635c0-1.691-0.34-3.258-1.018-4.694c-1.186-2.541-3.67-6.05-7.457-10.537
			c-3.786-4.486-6.221-7.85-7.298-10.09c-1.08-2.246-1.619-4.486-1.619-6.729c0-4.104,1.49-7.576,4.473-10.411
			c2.984-2.835,6.823-4.249,11.521-4.249c1.354,0,2.581,0.106,3.681,0.317c0.591,0.126,1.979,0.602,4.156,1.428
			c2.181,0.826,3.627,1.235,4.348,1.235c1.821,0,3.344-0.991,4.573-2.98H346.029z"/>
		<path fill="#1C1D42" d="M430.14,34.889l-11.045,37.829c-1.649,5.63-2.475,9.182-2.475,10.665c0,0.76,0.139,1.322,0.413,1.679
			c0.274,0.363,0.644,0.542,1.11,0.542c0.72,0,1.513-0.33,2.382-0.984c0.866-0.654,3.056-3.271,6.568-7.837l1.903,1.46
			c-3.344,5.286-6.77,9.179-10.282,11.676c-2.326,1.605-4.569,2.412-6.727,2.412c-1.652,0-2.94-0.466-3.872-1.395
			c-0.932-0.932-1.397-2.138-1.397-3.621c0-1.437,0.277-3.34,0.826-5.709c0.677-3.132,2.603-9.944,5.775-20.438
			c-7.192,11.805-13.212,19.948-18.056,24.436c-4.847,4.486-9.34,6.727-13.487,6.727c-1.949,0-3.598-0.678-4.953-2.028
			c-1.354-1.354-2.032-3.069-2.032-5.145c0-3.175,0.932-8.038,2.795-14.597l5.521-19.615c1.354-4.695,2.032-7.612,2.032-8.756
			c0-0.508-0.182-0.941-0.542-1.301c-0.36-0.36-0.75-0.542-1.173-0.542c-0.889,0-1.778,0.317-2.667,0.951
			c-0.889,0.638-2.897,2.987-6.029,7.047l-1.966-1.397c3.172-4.906,6.535-8.523,10.09-10.85c2.709-1.82,5.204-2.729,7.49-2.729
			c1.566,0,2.844,0.496,3.839,1.49c0.995,0.995,1.494,2.276,1.494,3.839c0,2.283-0.849,6.367-2.541,12.248l-5.967,20.504
			c-1.648,5.584-2.475,9.119-2.475,10.6c0,0.806,0.264,1.45,0.793,1.936s1.239,0.73,2.128,0.73c1.397,0,3.214-0.697,5.458-2.095
			c2.243-1.397,5.236-4.497,8.98-9.301c3.747-4.801,6.835-9.307,9.268-13.52c2.432-4.209,5.025-10.903,7.774-20.088l1.397-4.823
			H430.14z"/>
	</g>
</g>
</svg>
