<svg xmlns="http://www.w3.org/2000/svg" xmlns:xlink="http://www.w3.org/1999/xlink" width="86" height="86" viewBox="0 0 86 86">
  <defs>
    <clipPath id="clip-mark-line">
      <rect width="86" height="86"/>
    </clipPath>
  </defs>
  <g id="mark-line" clip-path="url(#clip-mark-line)">
    <g id="Group_34" data-name="Group 34" transform="translate(-864 -1509.038)">
      <path id="map-marker-alt-solid" d="M15.695,45.7C2.457,26.514,0,24.545,0,17.492a17.492,17.492,0,1,1,34.984,0c0,7.053-2.457,9.022-15.694,28.213a2.187,2.187,0,0,1-3.6,0Zm1.8-20.924A7.288,7.288,0,1,0,10.2,17.492,7.288,7.288,0,0,0,17.492,24.781Z" transform="translate(889.5 1528.5)" fill="none" stroke="#1e1e44" stroke-width="4"/>
      <g id="Path_43" data-name="Path 43" transform="translate(864 1509)" fill="none">
        <path d="M43,0A43,43,0,1,1,0,43,43,43,0,0,1,43,0Z" stroke="none"/>
        <path d="M 43 5 C 37.86783218383789 5 32.89183044433594 6.004013061523438 28.2102165222168 7.984169006347656 C 23.68579864501953 9.897842407226562 19.62141418457031 12.63847351074219 16.12993621826172 16.12993621826172 C 12.63847351074219 19.62141418457031 9.897842407226562 23.68579864501953 7.984169006347656 28.2102165222168 C 6.004013061523438 32.89183044433594 5 37.86783218383789 5 43 C 5 48.13216781616211 6.004013061523438 53.10816955566406 7.984169006347656 57.78978729248047 C 9.897842407226562 62.31420135498047 12.63847351074219 66.37858581542969 16.12993621826172 69.87006378173828 C 19.62141418457031 73.36152648925781 23.68579864501953 76.10215759277344 28.2102165222168 78.01583099365234 C 32.89183044433594 79.99598693847656 37.86783218383789 81 43 81 C 48.13216781616211 81 53.10816955566406 79.99598693847656 57.78978729248047 78.01583099365234 C 62.31420135498047 76.10215759277344 66.37858581542969 73.36152648925781 69.87006378173828 69.87006378173828 C 73.36152648925781 66.37858581542969 76.10215759277344 62.31420135498047 78.01583099365234 57.78978729248047 C 79.99598693847656 53.10816955566406 81 48.13216781616211 81 43 C 81 37.86783218383789 79.99598693847656 32.89183044433594 78.01583099365234 28.2102165222168 C 76.10215759277344 23.68579864501953 73.36152648925781 19.62141418457031 69.87006378173828 16.12993621826172 C 66.37858581542969 12.63847351074219 62.31420135498047 9.897842407226562 57.78978729248047 7.984169006347656 C 53.10816955566406 6.004013061523438 48.13216781616211 5 43 5 M 43 0 C 66.74824523925781 0 86 19.25175476074219 86 43 C 86 66.74824523925781 66.74824523925781 86 43 86 C 19.25175476074219 86 0 66.74824523925781 0 43 C 0 19.25175476074219 19.25175476074219 0 43 0 Z" stroke="none" fill="#1e1e44"/>
      </g>
    </g>
  </g>
</svg>
